<svg width="27" height="22" viewBox="0 0 27 22" fill="none" xmlns="http://www.w3.org/2000/svg">
<path d="M22.6597 16.0359C25.4552 13.4981 27 10.6226 27 10.6226C27 10.6226 22.0697 1.42764 13.8523 1.42764C12.274 1.43317 10.7134 1.76773 9.26709 2.41067L10.5326 3.69963C11.5966 3.30534 12.7199 3.10226 13.8523 3.09945C17.3365 3.09945 20.2273 5.05212 22.3458 7.20709C23.3653 8.24978 24.2793 9.39403 25.0739 10.6226C24.9786 10.768 24.8734 10.9285 24.7534 11.1041C24.2029 11.9065 23.3894 12.9765 22.3458 14.0381C22.0746 14.3139 21.7919 14.5865 21.4961 14.8506L22.6597 16.0359Z" fill="#C4D2FF"/>
<path d="M19.2709 12.5887C19.6376 11.5452 19.7056 10.4172 19.4668 9.33605C19.2279 8.25484 18.6922 7.26486 17.9219 6.48127C17.1516 5.69768 16.1784 5.15272 15.1156 4.90979C14.0527 4.66686 12.9439 4.73595 11.9181 5.10902L13.2707 6.48492C13.9022 6.39295 14.5462 6.45189 15.1515 6.65705C15.7569 6.86221 16.3069 7.20796 16.758 7.6669C17.2092 8.12584 17.5491 8.68536 17.7508 9.30112C17.9525 9.91688 18.0104 10.572 17.92 11.2145L19.2709 12.5887ZM14.4342 14.7604L15.7851 16.1346C14.7594 16.5077 13.6505 16.5767 12.5877 16.3338C11.5248 16.0909 10.5516 15.5459 9.78131 14.7623C9.01101 13.9787 8.47529 12.9888 8.23648 11.9076C7.99767 10.8263 8.06558 9.69839 8.43233 8.65492L9.78489 10.0308C9.69449 10.6733 9.75242 11.3284 9.9541 11.9441C10.1558 12.5599 10.4957 13.1194 10.9468 13.5784C11.398 14.0373 11.948 14.3831 12.5533 14.5882C13.1587 14.7934 13.8026 14.8523 14.4342 14.7604Z" fill="#C4D2FF"/>
<path d="M6.2103 6.39302C5.91448 6.66051 5.63016 6.93134 5.35899 7.20719C4.33946 8.24989 3.42549 9.39414 2.63085 10.6227L2.95132 11.1042C3.50188 11.9067 4.31539 12.9766 5.35899 14.0382C7.47741 16.1932 10.3699 18.1459 13.8524 18.1459C15.0291 18.1459 16.1368 17.9235 17.1722 17.544L18.4376 18.8347C16.9913 19.4776 15.4308 19.8121 13.8524 19.8177C5.63509 19.8177 0.704712 10.6227 0.704712 10.6227C0.704712 10.6227 2.24792 7.74552 5.04509 5.20938L6.20866 6.39469L6.2103 6.39302ZM23.1314 21.2454L3.40985 1.18365L4.57342 0L24.2949 20.0618L23.1314 21.2454Z" fill="#C4D2FF"/>
</svg>
